<?xml version="1.0" standalone="no"?>
<!DOCTYPE svg PUBLIC "-//W3C//DTD SVG 20010904//EN"
 "http://www.w3.org/TR/2001/REC-SVG-20010904/DTD/svg10.dtd">
<svg version="1.0" xmlns="http://www.w3.org/2000/svg"
 width="512.000000pt" height="512.000000pt" viewBox="0 0 512.000000 512.000000"
 preserveAspectRatio="xMidYMid meet">

<g transform="translate(0.000000,512.000000) scale(0.100000,-0.100000)"
fill="#000000" stroke="none">
<path d="M2315 5109 c-1013 -103 -1869 -788 -2185 -1747 -92 -278 -125 -491
-125 -802 0 -301 32 -513 116 -774 126 -395 328 -727 622 -1025 407 -411 906
-658 1502 -743 118 -17 512 -17 630 0 598 85 1099 333 1502 743 405 411 641
894 725 1484 17 118 17 512 0 630 -59 416 -191 769 -410 1099 -224 339 -548
638 -898 828 -281 152 -552 243 -874 293 -125 19 -477 28 -605 14z m383 -2368
c65 -33 118 -87 149 -149 24 -48 28 -69 28 -137 -1 -105 -27 -167 -101 -234
-125 -114 -303 -114 -428 0 -154 140 -136 380 38 497 66 44 97 52 191 48 59
-2 91 -8 123 -25z m-2288 -451 c327 -52 665 -89 1150 -125 l85 -6 27 -67 c115
-281 356 -490 654 -568 142 -38 326 -38 468 0 298 78 539 287 654 568 l27 67
85 6 c357 26 720 62 943 94 57 8 57 8 57 -18 -1 -44 -38 -201 -76 -316 -166
-507 -540 -938 -1020 -1178 -245 -122 -491 -188 -779 -208 -173 -12 -194 -19
-221 -71 -13 -26 -14 -38 -5 -70 24 -78 76 -89 311 -67 506 47 975 263 1344
619 328 317 549 717 640 1161 14 70 26 140 26 157 0 32 4 35 73 47 36 6 37 5
37 -24 0 -52 -48 -293 -80 -399 -118 -391 -325 -730 -623 -1018 -591 -573
-1409 -787 -2221 -583 -690 173 -1291 694 -1571 1363 -25 60 -61 161 -81 225
-35 117 -84 356 -84 412 0 28 2 30 28 25 15 -3 83 -15 152 -26z"/>
</g>
</svg>
