<?xml version="1.0" standalone="no"?>
<!DOCTYPE svg PUBLIC "-//W3C//DTD SVG 20010904//EN"
 "http://www.w3.org/TR/2001/REC-SVG-20010904/DTD/svg10.dtd">
<svg version="1.0" xmlns="http://www.w3.org/2000/svg"
 width="512.000000pt" height="512.000000pt" viewBox="0 0 512.000000 512.000000"
 preserveAspectRatio="xMidYMid meet">

<g transform="translate(0.000000,512.000000) scale(0.100000,-0.100000)"
fill="#000000" stroke="none">
<path d="M2370 5110 c-421 -52 -779 -225 -1079 -522 -350 -348 -541 -796 -541
-1275 0 -256 57 -488 185 -748 82 -167 149 -278 404 -665 472 -714 621 -989
896 -1654 81 -195 243 -284 421 -231 108 32 180 101 230 224 282 680 427 948
924 1706 307 467 395 625 474 854 67 193 80 278 80 521 0 245 -13 329 -85 545
-139 417 -428 775 -812 1005 -173 103 -387 183 -589 220 -130 24 -391 34 -508
20z m286 -1281 c244 -45 434 -272 434 -519 0 -147 -54 -275 -160 -380 -104
-103 -219 -150 -371 -151 -292 -2 -529 235 -529 528 0 143 51 264 155 369 130
132 295 185 471 153z m-830 -656 c34 -161 97 -278 208 -389 83 -83 159 -134
256 -172 100 -39 143 -46 270 -46 127 0 170 7 270 46 97 38 173 89 256 172
111 111 174 228 208 389 l6 27 428 0 429 0 -9 -67 c-28 -212 -123 -448 -290
-721 -40 -64 -150 -236 -246 -382 -459 -695 -685 -1110 -889 -1630 l-48 -123
-5 519 c-5 569 -3 549 -66 579 -40 19 -48 19 -89 -1 -65 -31 -65 -26 -65 -586
l-1 -503 -68 165 c-224 543 -403 868 -861 1565 -130 198 -259 398 -287 445
-146 244 -235 474 -261 673 l-9 67 429 0 428 0 6 -27z"/>
<path d="M2433 3715 c-149 -46 -265 -181 -295 -342 -13 -73 -6 -107 32 -144
68 -69 180 -12 180 93 1 102 106 198 216 198 37 0 70 22 90 62 22 42 11 90
-27 122 -26 22 -40 26 -92 25 -34 0 -81 -6 -104 -14z"/>
</g>
</svg>
