<?xml version="1.0" standalone="no"?>
<!DOCTYPE svg PUBLIC "-//W3C//DTD SVG 20010904//EN"
 "http://www.w3.org/TR/2001/REC-SVG-20010904/DTD/svg10.dtd">
<svg version="1.0" xmlns="http://www.w3.org/2000/svg"
 width="512.000000pt" height="512.000000pt" viewBox="0 0 512.000000 512.000000"
 preserveAspectRatio="xMidYMid meet">

<g transform="translate(0.000000,512.000000) scale(0.100000,-0.100000)"
fill="#000000" stroke="none">
<path d="M1990 5113 c-518 -35 -1013 -264 -1362 -632 -366 -385 -566 -857
-585 -1386 -8 -232 19 -456 82 -665 31 -105 54 -126 108 -99 12 6 262 154 556
327 338 201 536 324 541 337 4 11 13 63 19 115 37 334 263 595 586 681 164 43
363 24 535 -51 46 -20 78 -29 92 -24 25 8 1076 630 1101 652 36 32 22 63 -70
153 -110 108 -174 160 -288 237 -382 257 -860 386 -1315 355z m440 -143 c388
-62 755 -237 1034 -492 l60 -54 -57 -33 -58 -33 -89 46 c-284 147 -610 226
-933 226 -324 0 -609 -65 -893 -204 -481 -236 -828 -621 -1018 -1129 -72 -193
-126 -483 -126 -679 l0 -76 -51 -32 c-29 -17 -55 -28 -59 -23 -25 28 -67 286
-76 463 -12 256 43 571 143 815 266 646 826 1092 1512 1205 168 28 438 28 611
0z"/>
<path d="M4770 4667 c-78 -41 -799 -473 -817 -490 -41 -37 -18 -97 37 -97 28
0 826 471 858 507 25 27 22 58 -6 81 -20 15 -41 15 -72 -1z"/>
<path d="M4915 4262 c-404 -234 -1954 -1159 -1972 -1176 -19 -17 -24 -39 -33
-117 -20 -196 -86 -342 -219 -483 -143 -151 -345 -237 -556 -237 -144 0 -222
17 -348 74 -59 26 -73 29 -97 20 -32 -12 -1078 -630 -1096 -647 -7 -6 -15 -21
-19 -34 -5 -19 6 -35 67 -98 241 -250 560 -439 910 -539 192 -55 362 -77 583
-77 326 1 586 59 889 199 93 43 121 52 127 41 5 -7 163 -273 351 -590 359
-605 367 -615 416 -589 11 6 25 26 31 43 32 102 1131 4192 1131 4213 0 23 -32
55 -55 55 -6 0 -55 -26 -110 -58z m-516 -2072 c-285 -1059 -522 -1933 -526
-1943 -6 -13 -83 109 -309 490 -166 280 -305 524 -309 543 -10 51 -32 80 -59
80 -12 0 -83 -31 -157 -68 -201 -102 -379 -162 -594 -199 -141 -25 -501 -24
-635 1 -388 71 -707 221 -983 461 -96 84 -97 85 -25 124 l44 23 125 -61 c757
-368 1635 -247 2262 312 l77 69 1 -74 c1 -40 4 -83 7 -95 4 -12 85 -117 180
-233 163 -198 176 -210 207 -210 32 0 44 12 205 208 95 114 176 217 181 230
14 36 11 333 -4 361 -7 14 -73 59 -167 113 -217 126 -208 123 -265 93 -25 -14
-48 -25 -50 -25 -2 0 16 36 41 80 144 255 233 561 253 862 5 79 8 153 7 165
-1 20 68 63 504 322 277 165 505 299 506 298 1 -1 -231 -868 -517 -1927z
m-526 12 l97 -56 0 -127 0 -127 -127 -155 c-71 -86 -132 -155 -138 -155 -5 0
-67 70 -137 156 l-128 155 0 126 0 126 133 77 132 76 35 -20 c19 -11 79 -46
133 -76z"/>
<path d="M3679 4016 c-30 -14 -38 -66 -14 -90 36 -36 95 -9 95 43 0 44 -41 67
-81 47z"/>
<path d="M3107 3681 c-147 -87 -277 -167 -288 -177 -47 -42 0 -114 60 -93 14
6 148 83 296 172 254 153 270 164 273 193 4 36 -19 64 -51 64 -12 0 -143 -72
-290 -159z"/>
<path d="M2000 3515 c-181 -52 -319 -193 -359 -366 -15 -63 -13 -185 3 -245
58 -218 261 -374 486 -374 211 0 401 136 470 336 65 187 20 377 -122 518 -78
76 -128 106 -223 131 -70 18 -192 18 -255 0z m474 -332 c119 -270 -116 -575
-404 -525 -90 16 -163 56 -221 121 -27 30 -47 56 -45 58 7 8 641 383 647 383
3 0 13 -17 23 -37z"/>
<path d="M1101 2491 c-156 -93 -288 -177 -294 -186 -26 -47 29 -99 80 -76 61
28 539 315 556 333 9 11 17 29 17 39 0 24 -34 59 -57 59 -10 0 -146 -76 -302
-169z"/>
<path d="M503 2124 c-15 -24 -15 -29 -2 -53 28 -49 109 -32 109 24 0 54 -77
75 -107 29z"/>
<path d="M242 1979 c-25 -9 -40 -55 -25 -77 26 -43 87 -40 104 5 18 47 -29 90
-79 72z"/>
</g>
</svg>
